TITLE ""
FILE "2Q_t_0088-0100.mp3" MP3
  TRACK 01 AUDIO
    TITLE "2Q_t_0088-0100_01"
    INDEX 01 00:00:00
  TRACK 02 AUDIO
    TITLE "2Q_t_0088-0100_02"
    INDEX 01 00:01:04
  TRACK 03 AUDIO
    TITLE "2Q_t_0088-0100_03"
    INDEX 01 00:01:51
  TRACK 04 AUDIO
    TITLE "2Q_t_0088-0100_04"
    INDEX 01 00:04:37
  TRACK 05 AUDIO
    TITLE "2Q_t_0088-0100_05"
    INDEX 01 00:05:10
  TRACK 06 AUDIO
    TITLE "2Q_t_0088-0100_06"
    INDEX 01 00:06:40
  TRACK 07 AUDIO
    TITLE "2Q_t_0088-0100_07"
    INDEX 01 00:07:16
  TRACK 08 AUDIO
    TITLE "2Q_t_0088-0100_08"
    INDEX 01 00:08:49
  TRACK 09 AUDIO
    TITLE "2Q_t_0088-0100_09"
    INDEX 01 00:09:21
  TRACK 10 AUDIO
    TITLE "2Q_t_0088-0100_10"
    INDEX 01 00:10:44
  TRACK 11 AUDIO
    TITLE "2Q_t_0088-0100_11"
    INDEX 01 00:11:16
  TRACK 12 AUDIO
    TITLE "2Q_t_0088-0100_12"
    INDEX 01 00:14:08
  TRACK 13 AUDIO
    TITLE "2Q_t_0088-0100_13"
    INDEX 01 00:14:54
  TRACK 14 AUDIO
    TITLE "2Q_t_0088-0100_14"
    INDEX 01 00:16:00
  TRACK 15 AUDIO
    TITLE "2Q_t_0088-0100_15"
    INDEX 01 00:16:49
  TRACK 16 AUDIO
    TITLE "2Q_t_0088-0100_16"
    INDEX 01 00:17:54
  TRACK 17 AUDIO
    TITLE "2Q_t_0088-0100_17"
    INDEX 01 00:18:32
  TRACK 18 AUDIO
    TITLE "2Q_t_0088-0100_18"
    INDEX 01 00:19:41
  TRACK 19 AUDIO
    TITLE "2Q_t_0088-0100_19"
    INDEX 01 00:20:13
  TRACK 20 AUDIO
    TITLE "2Q_t_0088-0100_20"
    INDEX 01 00:21:24
  TRACK 21 AUDIO
    TITLE "2Q_t_0088-0100_21"
    INDEX 01 00:21:71
  TRACK 22 AUDIO
    TITLE "2Q_t_0088-0100_22"
    INDEX 01 00:23:05
  TRACK 23 AUDIO
    TITLE "2Q_t_0088-0100_23"
    INDEX 01 00:23:51
  TRACK 24 AUDIO
    TITLE "2Q_t_0088-0100_24"
    INDEX 01 00:24:54
  TRACK 25 AUDIO
    TITLE "2Q_t_0088-0100_25"
    INDEX 01 00:25:36
  TRACK 26 AUDIO
    TITLE "2Q_t_0088-0100_26"
    INDEX 01 00:27:64
  TRACK 27 AUDIO
    TITLE "2Q_t_0088-0100_27"
    INDEX 01 00:28:34
  TRACK 28 AUDIO
    TITLE "2Q_t_0088-0100_28"
    INDEX 01 00:29:49
  TRACK 29 AUDIO
    TITLE "2Q_t_0088-0100_29"
    INDEX 01 00:30:21
  TRACK 30 AUDIO
    TITLE "2Q_t_0088-0100_30"
    INDEX 01 00:33:08
  TRACK 31 AUDIO
    TITLE "2Q_t_0088-0100_31"
    INDEX 01 00:33:55
  TRACK 32 AUDIO
    TITLE "2Q_t_0088-0100_32"
    INDEX 01 00:34:56
  TRACK 33 AUDIO
    TITLE "2Q_t_0088-0100_33"
    INDEX 01 00:35:26
  TRACK 34 AUDIO
    TITLE "2Q_t_0088-0100_34"
    INDEX 01 00:36:53
  TRACK 35 AUDIO
    TITLE "2Q_t_0088-0100_35"
    INDEX 01 00:37:25
  TRACK 36 AUDIO
    TITLE "2Q_t_0088-0100_36"
    INDEX 01 00:38:40
  TRACK 37 AUDIO
    TITLE "2Q_t_0088-0100_37"
    INDEX 01 00:39:10
  TRACK 38 AUDIO
    TITLE "2Q_t_0088-0100_38"
    INDEX 01 00:40:31
  TRACK 39 AUDIO
    TITLE "2Q_t_0088-0100_39"
    INDEX 01 00:41:01
  TRACK 40 AUDIO
    TITLE "2Q_t_0088-0100_40"
    INDEX 01 00:42:66
  TRACK 41 AUDIO
    TITLE "2Q_t_0088-0100_41"
    INDEX 01 00:43:36
  TRACK 42 AUDIO
    TITLE "2Q_t_0088-0100_42"
    INDEX 01 00:44:60
  TRACK 43 AUDIO
    TITLE "2Q_t_0088-0100_43"
    INDEX 01 00:45:33
  TRACK 44 AUDIO
    TITLE "2Q_t_0088-0100_44"
    INDEX 01 00:47:57
  TRACK 45 AUDIO
    TITLE "2Q_t_0088-0100_45"
    INDEX 01 00:48:29
  TRACK 46 AUDIO
    TITLE "2Q_t_0088-0100_46"
    INDEX 01 00:49:50
  TRACK 47 AUDIO
    TITLE "2Q_t_0088-0100_47"
    INDEX 01 00:50:20
  TRACK 48 AUDIO
    TITLE "2Q_t_0088-0100_48"
    INDEX 01 00:51:25
  TRACK 49 AUDIO
    TITLE "2Q_t_0088-0100_49"
    INDEX 01 00:51:72
  TRACK 50 AUDIO
    TITLE "2Q_t_0088-0100_50"
    INDEX 01 00:56:01
  TRACK 51 AUDIO
    TITLE "2Q_t_0088-0100_51"
    INDEX 01 00:56:46
  TRACK 52 AUDIO
    TITLE "2Q_t_0088-0100_52"
    INDEX 01 00:57:53
  TRACK 53 AUDIO
    TITLE "2Q_t_0088-0100_53"
    INDEX 01 00:58:25
  TRACK 54 AUDIO
    TITLE "2Q_t_0088-0100_54"
    INDEX 01 01:04:18
  TRACK 55 AUDIO
    TITLE "2Q_t_0088-0100_55"
    INDEX 01 01:04:61
  TRACK 56 AUDIO
    TITLE "2Q_t_0088-0100_56"
    INDEX 01 01:05:67
  TRACK 57 AUDIO
    TITLE "2Q_t_0088-0100_57"
    INDEX 01 01:06:43
  TRACK 58 AUDIO
    TITLE "2Q_t_0088-0100_58"
    INDEX 01 01:10:60
